first trial
nRows=23
nColumns=38

# SIMM Motion File Header:
name Sujet_04_velo_60.mvnx
datacolumns 38
datarows 23
otherdata 1
range 15.6990 16.0660
endheader
time pelvis_tilt  pelvis_list  pelvis_rotation  pelvis_tx  pelvis_ty  pelvis_tz  hip_flexion_r  hip_adduction_r  hip_rotation_r  knee_angle_r  ankle_angle_r  subtalar_angle_r  mtp_angle_r  hip_flexion_l  hip_adduction_l  hip_rotation_l  knee_angle_l  ankle_angle_l  subtalar_angle_l  mtp_angle_l  lumbar_extension  lumbar_bending  lumbar_rotation  arm_flex_r  arm_add_r  arm_rot_r  elbow_flex_r  pro_sup_r  wrist_flex_r  wrist_dev_r  arm_flex_l  arm_add_l  arm_rot_l  elbow_flex_l  pro_sup_l  wrist_flex_l  wrist_dev_l
15.6990	-13.2115	7.3647	-40.2899	0.0000	1.2500	-0.0000	52.3305	-8.8346	6.0575	80.0953	11.8869	1.9574	-0.0000	70.9820	0.3931	-8.7799	75.2682	10.7408	8.2019	0.0000	-18.3375	-0.9623	-1.8130	69.5898	-10.1305	40.6651	27.5833	30.6762	-27.0192	-10.2070	75.0354	8.8020	26.7475	13.8491	63.3274	-20.9184	-15.5989	
15.7160	-13.2288	7.2159	-40.6901	0.0000	1.2500	-0.0000	54.0192	-8.8495	6.2889	83.4605	12.7503	2.0233	0.0000	68.6754	0.3857	-8.9454	71.6922	9.7560	8.3762	-0.0000	-18.2812	-0.8310	-1.7333	69.7278	-10.0293	40.8402	27.4253	30.9370	-26.9787	-10.1462	74.8288	8.6041	26.5473	13.8959	63.1775	-21.0013	-15.7285	
15.7330	-13.2580	7.0764	-41.1442	0.0000	1.2500	-0.0000	55.7912	-8.8693	6.4881	86.7319	13.6249	2.0536	-0.0000	66.2529	0.3725	-9.0941	68.0952	8.6416	8.4984	-0.0000	-18.2129	-0.7038	-1.6466	69.8288	-9.9101	41.0089	27.2656	31.2170	-26.9317	-10.0771	74.5916	8.3791	26.3131	13.9442	63.0270	-21.0881	-15.8752	
15.7490	-13.2968	6.9231	-41.6203	0.0000	1.2500	-0.0000	57.6577	-8.8892	6.7411	89.8386	14.3935	2.0857	-0.0000	63.7829	0.3629	-9.2239	64.5778	7.5578	8.6079	0.0000	-18.1365	-0.5748	-1.5443	69.9136	-9.7915	41.1519	27.1319	31.5101	-26.8982	-10.0171	74.2909	8.1473	26.1129	14.0118	62.8477	-21.1769	-16.0350	
15.7660	-13.3475	6.7489	-42.1259	0.0000	1.2500	-0.0000	59.6295	-8.9021	7.0738	92.7817	15.0522	2.1144	0.0000	61.2471	0.3645	-9.3543	61.1220	6.5547	8.7309	0.0000	-18.0511	-0.4454	-1.4182	69.9844	-9.6854	41.2647	27.0410	31.8174	-26.8896	-9.9757	73.9047	7.8988	25.9906	14.1126	62.6178	-21.2719	-16.2169	
15.7830	-13.4073	6.5604	-42.6539	0.0000	1.2500	-0.0000	61.6970	-8.9067	7.4553	95.5611	15.6043	2.1450	-0.0000	58.6635	0.3703	-9.4697	57.7463	5.5822	8.8440	-0.0000	-17.9581	-0.3138	-1.2766	70.0398	-9.5806	41.3520	26.9757	32.1377	-26.8943	-9.9435	73.4551	7.6451	25.9024	14.2333	62.3589	-21.3687	-16.4114	
15.7990	-13.4660	6.3567	-43.1512	0.0000	1.2500	-0.0000	63.8412	-8.9065	7.8890	98.1068	15.9407	2.2262	-0.0000	56.1541	0.3577	-9.5108	54.6053	4.6497	8.9112	0.0000	-17.8648	-0.1703	-1.1354	70.0960	-9.4609	41.4082	26.9126	32.4608	-26.8979	-9.9095	72.9756	7.4376	25.7858	14.3512	62.1078	-21.4513	-16.5865	
15.8160	-13.5186	6.1300	-43.6131	0.0000	1.2500	-0.0000	66.0955	-8.8997	8.4083	100.4345	15.9762	2.4082	0.0000	53.7119	0.3149	-9.4310	51.6886	3.7593	8.8934	-0.0000	-17.7677	-0.0102	-0.9959	70.1481	-9.2984	41.4130	26.8311	32.7937	-26.8956	-9.8685	72.4562	7.3004	25.6054	14.4569	61.8807	-21.5110	-16.7327	
15.8330	-13.5698	5.8880	-44.0443	0.0000	1.2500	-0.0000	68.4279	-8.8831	8.9796	102.5277	15.7925	2.6370	-0.0000	51.3414	0.2371	-9.2768	49.0064	2.9080	8.8286	0.0000	-17.6704	0.1617	-0.8570	70.2010	-9.1213	41.3864	26.7511	33.1294	-26.8922	-9.8258	71.9076	7.2105	25.3983	14.5600	61.6614	-21.5562	-16.8590	
15.8490	-13.6250	5.6530	-44.4072	0.0000	1.2500	-0.0000	70.7205	-8.8679	9.5121	104.2655	15.5313	2.8034	-0.0000	49.1819	0.1089	-9.1234	46.7442	2.0987	8.7943	-0.0000	-17.5905	0.3394	-0.7320	70.2861	-8.9971	41.3834	26.7105	33.4367	-26.8877	-9.7864	71.3959	7.1469	25.2109	14.6663	61.4374	-21.5969	-16.9615	
15.8660	-13.6844	5.4229	-44.6931	0.0000	1.2500	-0.0000	72.9808	-8.8623	10.0095	105.6281	15.1933	2.8720	0.0000	47.2565	-0.0921	-8.9516	44.9381	1.2875	8.8138	0.0000	-17.5360	0.5245	-0.6211	70.4319	-8.9547	41.4365	26.7273	33.7031	-26.8820	-9.7547	70.9231	7.1061	25.0589	14.7775	61.1957	-21.6345	-17.0321	
15.8830	-13.7485	5.1998	-44.9106	0.0000	1.2500	-0.0000	75.2010	-8.8677	10.4778	106.6322	14.7790	2.8768	0.0000	45.5428	-0.3490	-8.7761	43.5529	0.5196	8.8595	0.0000	-17.4982	0.7145	-0.5236	70.6108	-8.9643	41.5140	26.7839	33.9409	-26.8753	-9.7267	70.4884	7.0894	24.9260	14.8912	60.9491	-21.6674	-17.0789	
15.8990	-13.8243	5.0122	-45.0480	0.0000	1.2500	-0.0000	77.2396	-8.8967	10.8365	107.2087	14.4311	2.8142	-0.0000	44.1121	-0.6074	-8.7159	42.6679	-0.0678	8.9332	0.0000	-17.4697	0.8968	-0.4512	70.7706	-9.0053	41.5753	26.8654	34.1564	-26.8681	-9.6952	70.1533	7.0807	24.8089	15.0068	60.7235	-21.7013	-17.1220	
15.9160	-13.9198	4.8629	-45.0746	0.0000	1.2500	-0.0000	79.0859	-8.9747	11.0576	107.3267	14.1938	2.6754	-0.0000	42.9901	-0.8607	-8.8184	42.3056	-0.4410	9.0514	0.0000	-17.4518	1.0782	-0.4113	70.9017	-9.0830	41.5964	26.9747	34.3575	-26.8549	-9.6544	69.9757	7.0776	24.7113	15.1298	60.5277	-21.7447	-17.1717	
15.9330	-14.0277	4.7496	-45.0208	0.0000	1.2500	-0.0000	80.7506	-9.0901	11.1823	107.0151	14.0226	2.4701	0.0000	42.1511	-1.1096	-9.0251	42.4430	-0.6330	9.1968	-0.0000	-17.4421	1.2518	-0.3961	71.0142	-9.1927	41.6014	27.1089	34.5361	-26.8412	-9.6101	69.8982	7.0798	24.6285	15.2543	60.3530	-21.7891	-17.2175	
15.9490	-14.1319	4.6926	-44.9654	0.0000	1.2500	-0.0000	82.1239	-9.2001	11.2304	106.2951	13.9266	2.2232	-0.0000	41.5880	-1.3057	-9.2920	43.0896	-0.6081	9.3237	0.0000	-17.4278	1.3848	-0.3942	71.0844	-9.2995	41.6213	27.2445	34.6744	-26.8434	-9.5724	69.8098	7.0750	24.5451	15.3625	60.1992	-21.8140	-17.2483	
15.9660	-14.2314	4.7071	-44.9293	0.0000	1.2500	-0.0000	83.1870	-9.2895	11.1913	105.1391	13.9306	1.9493	-0.0000	41.3071	-1.4342	-9.6532	44.2781	-0.3032	9.4244	0.0000	-17.3999	1.4660	-0.4049	71.0922	-9.3936	41.6700	27.3730	34.7717	-26.8781	-9.5501	69.6569	7.0630	24.4463	15.4432	60.0584	-21.8055	-17.2557	
15.9830	-14.3271	4.7782	-44.8911	0.0000	1.2500	-0.0000	83.9584	-9.3738	11.0731	103.5786	14.0085	1.6346	0.0000	41.3014	-1.5109	-10.0697	45.9740	0.2183	9.5058	-0.0000	-17.3673	1.5067	-0.4292	71.0576	-9.4852	41.7332	27.5035	34.8291	-26.9286	-9.5342	69.4929	7.0440	24.3470	15.5077	59.9385	-21.7775	-17.2479	
15.9990	-14.4054	4.8799	-44.8657	0.0000	1.2500	-0.0000	84.3844	-9.4516	10.9180	101.7221	14.0927	1.2618	-0.0000	41.5445	-1.5346	-10.3894	48.0878	0.8027	9.5432	-0.0000	-17.3444	1.5079	-0.4575	71.0168	-9.5701	41.7992	27.6385	34.8322	-26.9608	-9.5080	69.3670	7.0074	24.2757	15.5719	59.8638	-21.7504	-17.2393	
16.0160	-14.4674	5.0129	-44.8630	0.0000	1.2500	-0.0000	84.4418	-9.5212	10.7577	99.5885	14.1856	0.7458	-0.0000	42.0545	-1.4843	-10.5560	50.6549	1.4545	9.4893	-0.0000	-17.3362	1.4610	-0.4888	70.9748	-9.6486	41.8782	27.7946	34.7455	-26.9570	-9.4587	69.3094	6.9376	24.2461	15.6465	59.8520	-21.7319	-17.2362	
16.0330	-14.5123	5.1765	-44.8729	0.0000	1.2500	-0.0000	84.1535	-9.5835	10.5586	97.1591	14.2827	0.1781	-0.0000	42.8146	-1.3843	-10.6285	53.6455	2.1683	9.3875	0.0000	-17.3378	1.3747	-0.5243	70.9267	-9.7204	41.9599	27.9553	34.6050	-26.9350	-9.3993	69.2902	6.8497	24.2442	15.7209	59.8854	-21.7145	-17.2324	
16.0490	-14.5247	5.3425	-44.8823	0.0000	1.2500	-0.0000	83.5335	-9.6402	10.2656	94.4852	14.3110	-0.2021	0.0000	43.7468	-1.3004	-10.6273	56.8728	2.7772	9.3520	0.0000	-17.3490	1.2751	-0.5586	70.8941	-9.7799	42.0027	28.0735	34.5037	-26.9149	-9.3517	69.2680	6.7798	24.2571	15.7794	59.9349	-21.6967	-17.2230	
16.0660	-14.4929	5.5113	-44.8978	0.0000	1.2500	-0.0000	82.5530	-9.6879	9.8246	91.5479	14.2828	-0.2857	0.0000	44.8419	-1.2406	-10.5581	60.3310	3.1961	9.4460	0.0000	-17.3717	1.1651	-0.5882	70.8927	-9.8212	41.9897	28.1236	34.4935	-26.9042	-9.3268	69.2049	6.7351	24.2902	15.8247	59.9784	-21.6756	-17.2073	
